<svg viewBox="14.554 10.789 43.75 49.705" xmlns="http://www.w3.org/2000/svg" class="icon icon-tabler icon-tabler-brand-github" stroke-width="2" stroke="currentColor" fill="currentColor" stroke-linecap="round" stroke-linejoin="round">
    <path d="M 14.554 10.789 L 14.554 16.661 L 58.304 16.661 L 58.304 10.789 L 14.554 10.789 M 14.554 21.954 L 14.554 27.909 L 58.304 27.909 L 58.304 21.954 L 14.554 21.954 M 14.554 33.119 L 14.554 60.494 C 16.342 59.978 18.139 58.578 19.764 57.671 L 30.681 51.574 C 32.033 50.819 33.388 50.071 34.734 49.306 C 35.173 49.056 35.917 48.433 36.436 48.443 C 36.946 48.452 37.687 49.079 38.125 49.329 C 39.385 50.049 40.657 50.755 41.929 51.454 C 45.776 53.567 49.578 55.76 53.425 57.873 C 54.912 58.69 56.65 60.116 58.304 60.494 L 58.304 33.119 L 14.554 33.119 Z" style="" transform="matrix(1, 0, 0, 1, 0, -3.552713678800501e-15)"/>
</svg>
