<svg viewBox="14.896 13.506 32.1256 54.074" xmlns="http://www.w3.org/2000/svg" class="icon icon-tabler icon-tabler-brand-github" stroke-width="2" stroke="currentColor" fill="currentColor" stroke-linecap="round" stroke-linejoin="round">
    <path d="M 46.781 64.232 C 45.344 65.763 41.5 67.58 36.494 67.58 C 23.736 67.58 20.968 58.201 20.968 52.731 L 20.968 37.522 L 15.952 37.522 C 15.371 37.522 14.896 37.048 14.896 36.466 L 14.896 29.285 C 14.896 28.524 15.371 27.848 16.089 27.595 C 22.638 25.292 24.697 19.568 24.992 15.228 C 25.077 14.066 25.679 13.506 26.693 13.506 L 34.181 13.506 C 34.762 13.506 35.237 13.981 35.237 14.562 L 35.237 26.729 L 44.003 26.729 C 44.584 26.729 45.059 27.194 45.059 27.774 L 45.059 36.403 C 45.059 36.984 44.584 37.459 44.003 37.459 L 35.195 37.459 L 35.195 51.527 C 35.195 55.139 37.698 57.188 42.376 55.308 C 42.884 55.107 43.327 54.97 43.718 55.075 C 44.087 55.171 44.33 55.434 44.5 55.91 L 46.823 62.701 C 47.013 63.229 47.171 63.82 46.781 64.232 Z" style="" transform="matrix(1, 0, 0, 1, 0, -3.552713678800501e-15)"/>
</svg>