<svg viewBox="12.645 10.0052 43.795 38.9293" xmlns="http://www.w3.org/2000/svg" class="icon icon-tabler icon-tabler-brand-github" stroke-width="2" stroke="currentColor" fill="currentColor" stroke-linecap="round" stroke-linejoin="round">
    <path d="M 34.543 27.276 C 32.56 23.419 27.159 16.232 22.138 12.687 C 17.328 9.291 15.493 9.88 14.29 10.423 C 12.898 11.052 12.645 13.19 12.645 14.447 C 12.645 15.705 13.335 24.758 13.784 26.269 C 15.27 31.263 20.56 32.95 25.431 32.408 C 25.68 32.371 25.933 32.337 26.189 32.306 C 25.938 32.346 25.685 32.38 25.431 32.408 C 18.292 33.466 11.952 36.067 20.268 45.325 C 29.415 54.796 32.804 43.294 34.543 37.463 C 36.282 43.294 38.285 54.381 48.654 45.325 C 56.44 37.463 50.793 33.466 43.654 32.409 C 43.4 32.38 43.148 32.346 42.897 32.306 C 43.152 32.338 43.405 32.372 43.654 32.409 C 48.526 32.95 53.815 31.263 55.301 26.27 C 55.751 24.759 56.44 15.705 56.44 14.448 C 56.44 13.19 56.187 11.053 54.795 10.423 C 53.592 9.88 51.757 9.292 46.947 12.687 C 41.926 16.232 36.526 23.419 34.543 27.276 Z" style="" transform="matrix(1, 0, 0, 1, 0, -3.552713678800501e-15)"/>
</svg>