<svg viewBox="13.768 13.209 54.38 30.878" xmlns="http://www.w3.org/2000/svg" class="icon icon-tabler icon-tabler-brand-github" stroke-width="2" stroke="currentColor" fill="currentColor" stroke-linecap="round" stroke-linejoin="round">
    <path opacity="1" d="M 29.105 13.209 C 20.633 13.209 13.768 20.117 13.768 28.648 C 13.768 37.179 20.633 44.087 29.105 44.087 C 37.576 44.087 44.442 37.179 44.442 28.648 C 44.442 20.117 37.576 13.209 29.105 13.209 Z M 53.601 14.11 C 49.37 14.11 45.937 20.618 45.937 28.648 C 45.937 36.677 49.37 43.186 53.61 43.186 C 57.85 43.186 61.282 36.677 61.282 28.648 L 61.265 28.648 C 61.265 20.618 57.833 14.11 53.601 14.11 Z M 65.454 15.622 C 63.967 15.622 62.761 21.451 62.761 28.648 C 62.761 35.845 63.967 41.673 65.454 41.673 C 66.941 41.673 68.148 35.836 68.148 28.648 C 68.148 21.459 66.941 15.622 65.454 15.622 Z" style=""/>
</svg>